<?xml version="1.0" encoding="UTF-8"?>
<!-- Generator: Adobe Illustrator 15.0.2, SVG Export Plug-In . SVG Version: 6.00 Build 0)  -->
<!DOCTYPE svg PUBLIC "-//W3C//DTD SVG 1.1//EN" "http://www.w3.org/Graphics/SVG/1.1/DTD/svg11.dtd">
<svg xmlns="http://www.w3.org/2000/svg" xmlns:xlink="http://www.w3.org/1999/xlink" version="1.1" id="Layer_1" x="0px" y="0px" width="512px" height="352.51px" viewBox="0.328 0 512 352.51" enable-background="new 0.328 0 512 352.51" xml:space="preserve">
<g>
	<path d="M430.489,139.595c1.479-24.113-4.74-45.955-18.196-62.927c-15.563-19.635-39.372-30.892-65.335-30.892   c-16.272,0-32.239,4.432-46.593,12.746C273.596,21.041,235.872,0,194.101,0c-41.271,0-80.97,21.105-103.569,55.073   c-18.247,27.417-23.585,59.396-15.655,91.806c-62.784,27.46-79.316,79.63-73.443,118.665c7.526,50.048,48.138,86.379,96.512,86.379   c1.847,0,187.192,0.587,299.482,0.587c73.856,0,111.193-51.844,114.632-100.028C515.214,208.282,490.655,157.025,430.489,139.595z    M470.366,249.521c-2.173,30.453-25.569,61.192-72.933,61.192c-112.224,0-297.502-0.593-299.426-0.593   c-31.249,0-51.44-25.554-55.237-50.792c-5.404-35.943,18.661-65.804,64.371-79.867c5.639-1.732,10.276-5.766,12.777-11.113   c2.5-5.333,2.633-11.489,0.347-16.929c-10.869-25.976-9.078-51.958,5.047-73.183c14.971-22.475,41.326-36.436,68.789-36.436   c33.423,0,62.579,20.231,82.071,56.964c3.088,5.812,8.736,9.835,15.242,10.848c6.485,1.008,13.104-1.092,17.818-5.689   c10.803-10.55,24.197-16.352,37.72-16.352c13.124,0,24.993,5.493,32.58,15.066c9.328,11.762,11.782,28.528,7.108,48.493   c-1.347,5.712-0.214,11.711,3.092,16.553c3.302,4.846,8.491,8.067,14.283,8.909C452.946,183.605,472.592,218.273,470.366,249.521z" fill="#000000"/>
	<path d="M186.641,62.781c-43.011,3.794-56.14,38.102-54.472,60.234c0.725,9.604,8.741,16.908,18.207,16.908   c0.474,0,0.938-0.016,1.408-0.051c10.067-0.764,17.619-9.543,16.859-19.615c-0.327-4.468,0.193-19.199,21.222-21.049   c10.058-0.888,17.497-9.759,16.609-19.824C205.583,69.333,196.709,61.84,186.641,62.781z" fill="#000000"/>
</g>
</svg>
