<?xml version="1.0" encoding="utf-8"?>
<!-- Generator: Adobe Illustrator 15.0.2, SVG Export Plug-In . SVG Version: 6.00 Build 0)  -->
<!DOCTYPE svg PUBLIC "-//W3C//DTD SVG 1.1//EN" "http://www.w3.org/Graphics/SVG/1.1/DTD/svg11.dtd">
<svg version="1.1" id="Layer_1" xmlns="http://www.w3.org/2000/svg" xmlns:xlink="http://www.w3.org/1999/xlink" x="0px" y="0px"
	 width="512px" height="512px" viewBox="0 0 512 512" enable-background="new 0 0 512 512" xml:space="preserve">
<path d="M365.918,322.008h-23.27l-8.062-8.047c28.701-33.232,45.969-76.407,45.969-123.684C380.556,85.184,295.365,0,190.277,0
	C85.184,0,0,85.184,0,190.277c0,105.088,85.184,190.278,190.277,190.278c47.276,0,90.451-17.268,123.684-45.812l8.047,8.047v23.127
	L468.376,512L512,468.376L365.918,322.008z M190.277,322.008c-72.747,0-131.73-58.989-131.73-131.73
	c0-72.74,58.983-131.73,131.73-131.73c72.748,0,131.73,58.99,131.73,131.73C322.008,263.019,263.025,322.008,190.277,322.008z"/>
</svg>
